<svg id="visual" viewBox="0 0 900 450" width="900" height="450" xmlns="http://www.w3.org/2000/svg" xmlns:xlink="http://www.w3.org/1999/xlink" version="1.1"><path d="M0 138L100 138L100 109L200 109L200 166L300 166L300 150L400 150L400 96L500 96L500 143L600 143L600 97L700 97L700 97L800 97L800 152L900 152L900 134L900 451L900 451L800 451L800 451L700 451L700 451L600 451L600 451L500 451L500 451L400 451L400 451L300 451L300 451L200 451L200 451L100 451L100 451L0 451Z" fill="#9900ff"></path><path d="M0 232L100 232L100 235L200 235L200 189L300 189L300 189L400 189L400 223L500 223L500 231L600 231L600 198L700 198L700 204L800 204L800 185L900 185L900 237L900 451L900 451L800 451L800 451L700 451L700 451L600 451L600 451L500 451L500 451L400 451L400 451L300 451L300 451L200 451L200 451L100 451L100 451L0 451Z" fill="#8200d9"></path><path d="M0 271L100 271L100 281L200 281L200 300L300 300L300 297L400 297L400 278L500 278L500 311L600 311L600 284L700 284L700 305L800 305L800 256L900 256L900 300L900 451L900 451L800 451L800 451L700 451L700 451L600 451L600 451L500 451L500 451L400 451L400 451L300 451L300 451L200 451L200 451L100 451L100 451L0 451Z" fill="#6c00b4"></path><path d="M0 381L100 381L100 377L200 377L200 368L300 368L300 346L400 346L400 350L500 350L500 368L600 368L600 344L700 344L700 372L800 372L800 345L900 345L900 359L900 451L900 451L800 451L800 451L700 451L700 451L600 451L600 451L500 451L500 451L400 451L400 451L300 451L300 451L200 451L200 451L100 451L100 451L0 451Z" fill="#560090"></path></svg>